<svg width="26" height="33" viewBox="0 0 26 33" fill="none" xmlns="http://www.w3.org/2000/svg">
<g id="sidebar-logo-black.fe24ac28 1" clip-path="url(#clip0_2323_15922)">
<path id="Vector" d="M18.561 8.98594C18.1438 8.98594 17.7436 8.81687 17.4485 8.51586C17.1535 8.21485 16.9877 7.8066 16.9877 7.38094C16.9877 6.275 16.557 5.21435 15.7904 4.43231C15.0238 3.65027 13.9841 3.21094 12.9 3.21094C11.8158 3.21094 10.7761 3.65027 10.0095 4.43231C9.24293 5.21435 8.81224 6.275 8.81224 7.38094C8.8172 7.59482 8.78013 7.80756 8.70331 8.00664C8.62649 8.20572 8.51142 8.38713 8.36486 8.54016C8.21832 8.69323 8.04324 8.81483 7.84997 8.89789C7.65669 8.98091 7.44908 9.02369 7.23936 9.02369C7.02961 9.02369 6.822 8.98091 6.62872 8.89789C6.43545 8.81483 6.26037 8.69323 6.11383 8.54016C5.96729 8.38713 5.8522 8.20572 5.77538 8.00664C5.69856 7.80756 5.66152 7.59482 5.66645 7.38094C5.68734 5.4373 6.45888 3.58051 7.81354 2.21362C9.16823 0.846733 10.9968 0.0800781 12.9022 0.0800781C14.8075 0.0800781 16.6361 0.846733 17.9908 2.21362C19.3454 3.58051 20.117 5.4373 20.1379 7.38094C20.1379 7.59201 20.0971 7.80102 20.0178 7.99597C19.9385 8.19095 19.8223 8.36804 19.6758 8.51712C19.5293 8.66621 19.3555 8.78436 19.1642 8.86479C18.9729 8.94526 18.7679 8.98643 18.561 8.98594Z" fill="#444B55"/>
<path id="Vector_2" d="M24.2237 32.7575H1.57246C1.36593 32.7575 1.1614 32.7162 0.970571 32.6357C0.77974 32.5552 0.606347 32.4368 0.460306 32.2878C0.314267 32.1388 0.198444 31.9621 0.11946 31.7675C0.0404772 31.5726 -0.000114034 31.3641 2.92466e-07 31.1535V8.04625C-0.000189432 7.72884 0.0919315 7.41851 0.264704 7.15454C0.437474 6.89057 0.683129 6.6848 0.970577 6.56332C1.25803 6.44183 1.57435 6.41007 1.8795 6.47203C2.18466 6.53402 2.46493 6.68693 2.68485 6.91148L12.8981 17.3303L23.1113 6.91148C23.3312 6.68693 23.6115 6.53402 23.9166 6.47203C24.2218 6.41007 24.5381 6.44183 24.8255 6.56332C25.113 6.6848 25.3586 6.89057 25.5314 7.15454C25.7042 7.41851 25.7963 7.72884 25.7961 8.04625V31.1535C25.7961 31.5788 25.6304 31.9868 25.3355 32.2878C25.0407 32.5885 24.6407 32.7575 24.2237 32.7575ZM3.14494 29.5448H22.6503V11.9199L14.0104 20.7346C13.8644 20.8837 13.691 21.002 13.5001 21.0827C13.3092 21.1634 13.1047 21.2049 12.8981 21.2049C12.6914 21.2049 12.4869 21.1634 12.296 21.0827C12.1051 21.002 11.9317 20.8837 11.7857 20.7346L3.14494 11.9199V29.5448Z" fill="#444B55"/>
</g>
<defs>
<clipPath id="clip0_2323_15922">
<rect width="26" height="33" fill="white"/>
</clipPath>
</defs>
</svg>
