<svg width="90" height="50" viewBox="0 0 90 50" fill="none" xmlns="http://www.w3.org/2000/svg">
<g id="Asset 1 2" clip-path="url(#clip0_2477_10041)">
<g id="Layer 2">
<g id="Layer 1">
<path id="Vector" d="M0.914065 44.6288C0.913759 44.5655 0.938274 44.5047 0.982334 44.4593C1.02639 44.4139 1.08648 44.3877 1.14966 44.3862H2.50016C3.4558 44.3862 4.08625 44.8958 4.08625 45.7322V45.7444C4.08625 46.6595 3.32307 47.1325 2.42052 47.1325H1.39188V48.4187C1.39188 48.4822 1.36671 48.543 1.32191 48.5879C1.27711 48.6328 1.21634 48.658 1.15297 48.658C1.08961 48.658 1.02884 48.6328 0.98404 48.5879C0.939236 48.543 0.914065 48.4822 0.914065 48.4187V44.6288ZM2.43933 46.696C3.14168 46.696 3.6018 46.3205 3.6018 45.7621V45.7533C3.6018 45.1473 3.14721 44.8316 2.46366 44.8316H1.39188V46.6994L2.43933 46.696Z" fill="#182958"/>
<path id="Vector_2" d="M4.58301 47.7209V47.7087C4.58301 47.044 5.12719 46.6962 5.92024 46.6962C6.24586 46.6928 6.57016 46.738 6.88251 46.8302V46.7194C6.88251 46.1556 6.53853 45.8642 5.95121 45.8642C5.67112 45.864 5.39427 45.9241 5.13936 46.0403C5.11272 46.0517 5.08423 46.0581 5.0553 46.0592C5.00256 46.059 4.95186 46.0388 4.91346 46.0026C4.87506 45.9664 4.85183 45.9169 4.84846 45.8642C4.84893 45.8231 4.86116 45.783 4.8837 45.7486C4.90625 45.7142 4.93816 45.6871 4.97566 45.6703C5.29757 45.5269 5.64647 45.4544 5.99877 45.4576C6.44119 45.4576 6.77965 45.5684 7.00971 45.8033C7.22207 46.016 7.33157 46.3184 7.33157 46.7194V48.4355C7.33277 48.4653 7.32793 48.4951 7.31734 48.523C7.30676 48.5509 7.29066 48.5764 7.26999 48.5979C7.24933 48.6194 7.22454 48.6365 7.19711 48.6482C7.16968 48.6599 7.14017 48.6659 7.11036 48.6659C7.05169 48.6659 6.99542 48.6425 6.95394 48.601C6.91245 48.5594 6.88915 48.5031 6.88915 48.4443V48.1574C6.75709 48.3311 6.58551 48.4707 6.38869 48.5645C6.19188 48.6584 5.97552 48.7038 5.75765 48.6969C5.17254 48.6969 4.58301 48.3635 4.58301 47.7209ZM6.88915 47.4783V47.1759C6.59046 47.087 6.2805 47.0418 5.9689 47.0418C5.38159 47.0418 5.0553 47.2966 5.0553 47.691V47.7032C5.0553 48.0976 5.41808 48.328 5.84171 48.328C6.41686 48.328 6.88915 47.9757 6.88915 47.4783Z" fill="#182958"/>
<path id="Vector_3" d="M8.1589 48.3013C8.13251 48.2817 8.11107 48.2561 8.09628 48.2267C8.08149 48.1972 8.07377 48.1648 8.07373 48.1318C8.0746 48.078 8.09673 48.0266 8.13528 47.989C8.17384 47.9515 8.22567 47.9307 8.27946 47.9313C8.31931 47.9311 8.35813 47.944 8.39006 47.9679C8.68071 48.1769 9.02779 48.2928 9.38552 48.3002C9.76048 48.3002 10.0337 48.1063 10.0337 47.8028V47.7906C10.0337 47.476 9.66425 47.3541 9.25279 47.2367C8.7617 47.0971 8.21752 46.9276 8.21752 46.3504V46.3383C8.21752 45.7987 8.65994 45.4409 9.28266 45.4409C9.63102 45.4489 9.97238 45.5405 10.2781 45.7079C10.312 45.7275 10.3401 45.7558 10.3596 45.7899C10.379 45.8239 10.3891 45.8625 10.3887 45.9018C10.3884 45.9285 10.3829 45.9549 10.3724 45.9794C10.3619 46.004 10.3466 46.0262 10.3275 46.0449C10.3084 46.0635 10.2858 46.0782 10.261 46.088C10.2362 46.0979 10.2097 46.1027 10.183 46.1023C10.1473 46.1021 10.1121 46.0938 10.0801 46.0779C9.83345 45.9289 9.55287 45.8454 9.26496 45.8353C8.89553 45.8353 8.65994 46.0292 8.65994 46.2906V46.3017C8.65994 46.5997 9.04707 46.7149 9.46516 46.8423C9.94961 46.9874 10.4695 47.1747 10.4695 47.7397V47.7474C10.4695 48.3412 9.97948 48.6868 9.35566 48.6868C8.92746 48.6796 8.51101 48.5455 8.1589 48.3013Z" fill="#182958"/>
<path id="Vector_4" d="M11.1035 47.7209V47.7087C11.1035 47.044 11.6477 46.6962 12.4407 46.6962C12.7664 46.6928 13.0907 46.738 13.403 46.8302V46.7194C13.403 46.1556 13.0579 45.8642 12.4717 45.8642C12.1916 45.864 11.9148 45.9241 11.6599 46.0403C11.6332 46.0517 11.6047 46.0581 11.5758 46.0592C11.5227 46.0596 11.4714 46.0396 11.4326 46.0033C11.3937 45.9671 11.3701 45.9173 11.3668 45.8642C11.3672 45.8231 11.3795 45.783 11.402 45.7486C11.4245 45.7142 11.4565 45.6871 11.494 45.6703C11.8158 45.5268 12.1648 45.4543 12.5171 45.4576C12.9595 45.4576 13.2979 45.5684 13.528 45.8033C13.7404 46.016 13.8488 46.3184 13.8488 46.7194V48.4355C13.85 48.4653 13.8451 48.4951 13.8345 48.523C13.824 48.5509 13.8078 48.5764 13.7872 48.5979C13.7665 48.6194 13.7417 48.6365 13.7143 48.6482C13.6869 48.6599 13.6574 48.6659 13.6276 48.6659C13.5689 48.6659 13.5126 48.6426 13.4711 48.601C13.4296 48.5595 13.4063 48.5031 13.4063 48.4443V48.1574C13.2743 48.3311 13.1027 48.4707 12.9059 48.5645C12.7091 48.6584 12.4927 48.7038 12.2748 48.6969C11.6897 48.6969 11.1035 48.3635 11.1035 47.7209ZM13.4097 47.4783V47.1759C13.111 47.087 12.801 47.0418 12.4894 47.0418C11.9021 47.0418 11.5758 47.2966 11.5758 47.691V47.7032C11.5758 48.0976 11.9386 48.328 12.3622 48.328C12.9374 48.328 13.4097 47.9757 13.4097 47.4783Z" fill="#182958"/>
<path id="Vector_5" d="M14.8443 45.7026C14.844 45.6408 14.8679 45.5813 14.9109 45.5369C14.9539 45.4926 15.0126 45.467 15.0743 45.4655C15.1055 45.4651 15.1365 45.4709 15.1654 45.4826C15.1944 45.4944 15.2206 45.5118 15.2427 45.534C15.2648 45.5561 15.2822 45.5824 15.2939 45.6113C15.3057 45.6403 15.3115 45.6713 15.311 45.7026V46.2908C15.5411 45.7691 15.9946 45.4533 16.3883 45.4533C16.4195 45.452 16.4505 45.4573 16.4795 45.4688C16.5084 45.4803 16.5346 45.4979 16.5564 45.5203C16.5781 45.5426 16.5948 45.5694 16.6055 45.5987C16.6162 45.628 16.6206 45.6593 16.6184 45.6904C16.6199 45.7484 16.5995 45.8048 16.5614 45.8485C16.5233 45.8922 16.4702 45.92 16.4127 45.9264C15.8065 45.9995 15.3066 46.4537 15.3066 47.3577V48.4245C15.3066 48.4865 15.282 48.546 15.2382 48.5898C15.1945 48.6336 15.1351 48.6583 15.0732 48.6583C15.0113 48.6583 14.952 48.6336 14.9082 48.5898C14.8644 48.546 14.8398 48.4865 14.8398 48.4245L14.8443 45.7026Z" fill="#182958"/>
<path id="Vector_6" d="M19.1909 44.6288C19.1909 44.5654 19.2157 44.5046 19.2599 44.4592C19.3041 44.4139 19.3643 44.3877 19.4276 44.3862H20.6576C21.9848 44.3862 22.9095 45.3013 22.9095 46.4911V46.5033C22.9139 47.7031 21.9937 48.6336 20.6576 48.6336H19.4276C19.3643 48.6322 19.3041 48.606 19.2599 48.5606C19.2157 48.5153 19.1909 48.4544 19.1909 48.391V44.6288ZM20.6576 48.1905C21.7293 48.1905 22.4129 47.4627 22.4129 46.5221V46.511C22.4129 45.5705 21.7293 44.8305 20.6576 44.8305H19.6621V48.1905H20.6576Z" fill="#182958"/>
<path id="Vector_7" d="M23.8462 44.5138C23.8462 44.4403 23.8753 44.3699 23.9272 44.3179C23.979 44.266 24.0494 44.2368 24.1227 44.2368C24.196 44.2368 24.2664 44.266 24.3182 44.3179C24.3701 44.3699 24.3992 44.4403 24.3992 44.5138V44.5924C24.3992 44.6659 24.3701 44.7363 24.3182 44.7883C24.2664 44.8402 24.196 44.8694 24.1227 44.8694C24.0494 44.8694 23.979 44.8402 23.9272 44.7883C23.8753 44.7363 23.8462 44.6659 23.8462 44.5924V44.5138ZM23.8893 45.7025C23.889 45.6406 23.913 45.5812 23.956 45.5368C23.999 45.4925 24.0577 45.4668 24.1194 45.4654C24.1505 45.4649 24.1815 45.4708 24.2103 45.4825C24.2392 45.4943 24.2654 45.5118 24.2874 45.5339C24.3094 45.556 24.3267 45.5823 24.3383 45.6113C24.3499 45.6403 24.3556 45.6713 24.355 45.7025V48.4244C24.3562 48.4553 24.3511 48.4861 24.3401 48.515C24.329 48.5438 24.3122 48.5702 24.2907 48.5923C24.2692 48.6145 24.2434 48.6321 24.2149 48.6439C24.1864 48.6558 24.1558 48.6618 24.1249 48.6615C24.0938 48.6619 24.0628 48.6561 24.034 48.6443C24.0051 48.6326 23.9789 48.6151 23.9569 48.593C23.935 48.5708 23.9176 48.5445 23.906 48.5156C23.8944 48.4866 23.8887 48.4556 23.8893 48.4244V45.7025Z" fill="#182958"/>
<path id="Vector_8" d="M25.5176 49.2432C25.4814 49.2255 25.4508 49.1979 25.4295 49.1636C25.4082 49.1293 25.3969 49.0897 25.3971 49.0493C25.4008 48.9949 25.4244 48.9439 25.4634 48.9059C25.5024 48.8679 25.554 48.8456 25.6083 48.8432C25.6447 48.8432 25.6804 48.8536 25.7112 48.8731C26.0378 49.0944 26.423 49.2128 26.8172 49.2133C27.5074 49.2133 27.9554 48.8311 27.9554 48.0977V47.7277C27.6822 48.091 27.3017 48.3924 26.7265 48.3924C26.533 48.3956 26.3408 48.36 26.1613 48.2875C25.9818 48.215 25.8186 48.1072 25.6814 47.9705C25.5443 47.8337 25.4359 47.6707 25.3627 47.4913C25.2895 47.3118 25.2531 47.1194 25.2555 46.9256V46.9134C25.2562 46.5984 25.3571 46.2918 25.5435 46.038C25.7298 45.7842 25.992 45.5965 26.2921 45.502C26.5921 45.4074 26.9144 45.411 27.2122 45.5122C27.5101 45.6134 27.7681 45.807 27.9487 46.0648V45.707C27.9476 45.6759 27.9526 45.6449 27.9636 45.6157C27.9746 45.5866 27.9914 45.56 28.0128 45.5375C28.0343 45.515 28.06 45.497 28.0885 45.4846C28.117 45.4723 28.1477 45.4658 28.1788 45.4655C28.2416 45.4655 28.3018 45.4905 28.3462 45.5349C28.3906 45.5794 28.4155 45.6397 28.4155 45.7026V48.0855C28.4155 48.5696 28.2695 48.9396 28.0151 49.1933C27.7375 49.4725 27.3194 49.6121 26.8228 49.6121C26.3617 49.6145 25.9094 49.4866 25.5176 49.2432ZM27.9698 46.9167V46.9045C27.9698 46.262 27.4167 45.8444 26.8195 45.8444C26.2222 45.8444 25.7355 46.2565 25.7355 46.899V46.9112C25.7347 47.0531 25.7624 47.1937 25.8168 47.3247C25.8713 47.4558 25.9514 47.5745 26.0524 47.674C26.1535 47.7735 26.2734 47.8516 26.4052 47.9038C26.5369 47.9561 26.6778 47.9813 26.8195 47.978C27.4123 47.9758 27.9698 47.5449 27.9698 46.9145V46.9167Z" fill="#182958"/>
<path id="Vector_9" d="M29.4585 44.5138C29.4585 44.4403 29.4876 44.3699 29.5395 44.3179C29.5913 44.266 29.6617 44.2368 29.735 44.2368C29.8083 44.2368 29.8787 44.266 29.9305 44.3179C29.9824 44.3699 30.0115 44.4403 30.0115 44.5138V44.5924C30.0115 44.6659 29.9824 44.7363 29.9305 44.7883C29.8787 44.8402 29.8083 44.8694 29.735 44.8694C29.6617 44.8694 29.5913 44.8402 29.5395 44.7883C29.4876 44.7363 29.4585 44.6659 29.4585 44.5924V44.5138ZM29.5016 45.7025C29.5013 45.6414 29.5246 45.5825 29.5667 45.5383C29.6088 45.4941 29.6663 45.468 29.7273 45.4654C29.7584 45.4649 29.7894 45.4708 29.8182 45.4825C29.8471 45.4943 29.8733 45.5118 29.8953 45.5339C29.9172 45.556 29.9346 45.5823 29.9462 45.6113C29.9578 45.6403 29.9635 45.6713 29.9629 45.7025V48.4244C29.9641 48.4553 29.959 48.4861 29.9479 48.515C29.9369 48.5438 29.9201 48.5702 29.8986 48.5923C29.8771 48.6145 29.8513 48.6321 29.8228 48.6439C29.7943 48.6558 29.7637 48.6618 29.7328 48.6615C29.7016 48.6619 29.6707 48.6561 29.6419 48.6443C29.613 48.6326 29.5868 48.6151 29.5648 48.593C29.5428 48.5708 29.5255 48.5445 29.5139 48.5156C29.5023 48.4866 29.4966 48.4556 29.4972 48.4244L29.5016 45.7025Z" fill="#182958"/>
<path id="Vector_10" d="M31.215 47.7993V45.9083H30.9606C30.9066 45.9066 30.8552 45.8844 30.817 45.8461C30.7788 45.8078 30.7565 45.7563 30.7549 45.7022C30.7555 45.6477 30.7773 45.5957 30.8158 45.5571C30.8542 45.5186 30.9062 45.4967 30.9606 45.4961H31.215V44.7561C31.2143 44.7254 31.2196 44.6949 31.2308 44.6663C31.2419 44.6377 31.2586 44.6117 31.2799 44.5896C31.3013 44.5675 31.3267 44.5499 31.3549 44.5378C31.383 44.5257 31.4133 44.5193 31.444 44.519C31.5064 44.5202 31.5659 44.5455 31.6101 44.5897C31.6542 44.634 31.6795 44.6936 31.6807 44.7561V45.4961H32.4925C32.5476 45.4964 32.6005 45.518 32.6401 45.5564C32.6797 45.5948 32.7029 45.647 32.7049 45.7022C32.7037 45.7576 32.6808 45.8104 32.641 45.849C32.6012 45.8875 32.5479 45.9089 32.4925 45.9083H31.6818V47.7395C31.6818 48.1206 31.8941 48.2602 32.2082 48.2602C32.3043 48.2566 32.3996 48.2425 32.4925 48.2181C32.5455 48.2184 32.5963 48.2396 32.6337 48.2771C32.6712 48.3147 32.6924 48.3655 32.6927 48.4186C32.6919 48.4589 32.6787 48.4979 32.655 48.5304C32.6312 48.5629 32.5981 48.5873 32.56 48.6003C32.4137 48.6586 32.2573 48.6873 32.0999 48.6845C31.5955 48.6845 31.215 48.4363 31.215 47.7993Z" fill="#182958"/>
<path id="Vector_11" d="M33.2666 47.721V47.7088C33.2666 47.0441 33.8108 46.6962 34.6038 46.6962C34.9295 46.6929 35.2538 46.7381 35.5661 46.8303V46.7195C35.5661 46.1556 35.221 45.8642 34.6348 45.8642C34.3535 45.8639 34.0755 45.9244 33.8196 46.0415C33.7926 46.053 33.7638 46.0594 33.7345 46.0603C33.681 46.0598 33.6298 46.0387 33.5915 46.0013C33.5532 45.964 33.5307 45.9133 33.5287 45.8598C33.5292 45.8187 33.5414 45.7786 33.564 45.7442C33.5865 45.7098 33.6184 45.6827 33.6559 45.6659C33.9778 45.5224 34.3267 45.4499 34.679 45.4532C35.1215 45.4532 35.4599 45.564 35.69 45.7989C35.9024 46.0116 36.0108 46.314 36.0108 46.715V48.4311C36.0119 48.4609 36.0071 48.4907 35.9965 48.5186C35.9859 48.5465 35.9698 48.572 35.9492 48.5935C35.9285 48.615 35.9037 48.6321 35.8763 48.6438C35.8489 48.6555 35.8194 48.6615 35.7895 48.6615C35.7309 48.6615 35.6746 48.6382 35.6331 48.5966C35.5916 48.5551 35.5683 48.4987 35.5683 48.4399V48.1574C35.4363 48.3311 35.2647 48.4707 35.0679 48.5646C34.8711 48.6584 34.6547 48.7038 34.4368 48.6969C33.8473 48.6969 33.2666 48.3635 33.2666 47.721ZM35.5728 47.4783V47.1759C35.2741 47.087 34.9641 47.0418 34.6525 47.0419C34.0652 47.0419 33.7378 47.2967 33.7378 47.691V47.7032C33.7378 48.0976 34.1017 48.328 34.5253 48.328C35.0949 48.328 35.5672 47.9758 35.5672 47.4783H35.5728Z" fill="#182958"/>
<path id="Vector_12" d="M37.045 44.4105C37.0428 44.3785 37.0472 44.3464 37.0579 44.3162C37.0686 44.286 37.0854 44.2583 37.1072 44.2349C37.129 44.2115 37.1555 44.1928 37.1848 44.18C37.2142 44.1672 37.2458 44.1606 37.2778 44.1606C37.3098 44.1606 37.3415 44.1672 37.3708 44.18C37.4002 44.1928 37.4266 44.2115 37.4484 44.2349C37.4702 44.2583 37.487 44.286 37.4977 44.3162C37.5084 44.3464 37.5128 44.3785 37.5106 44.4105V48.4241C37.5118 48.455 37.5068 48.4858 37.4957 48.5147C37.4847 48.5436 37.4679 48.5699 37.4463 48.5921C37.4248 48.6142 37.399 48.6318 37.3705 48.6437C37.3421 48.6556 37.3114 48.6615 37.2806 48.6612C37.2494 48.6617 37.2185 48.6558 37.1896 48.6441C37.1608 48.6323 37.1346 48.6148 37.1126 48.5927C37.0906 48.5706 37.0733 48.5443 37.0617 48.5153C37.0501 48.4863 37.0444 48.4553 37.045 48.4241V44.4105Z" fill="#182958"/>
<path id="Vector_13" d="M40.4229 46.8547V44.598C40.4229 44.5346 40.448 44.4737 40.4928 44.4288C40.5376 44.3839 40.5984 44.3587 40.6618 44.3587C40.7251 44.3587 40.7859 44.3839 40.8307 44.4288C40.8755 44.4737 40.9007 44.5346 40.9007 44.598V46.8236C40.9007 47.7398 41.3907 48.2549 42.1959 48.2549C42.9767 48.2549 43.4734 47.7819 43.4734 46.8547V44.598C43.4711 44.5651 43.4757 44.5322 43.4867 44.5011C43.4977 44.4701 43.515 44.4417 43.5375 44.4176C43.5599 44.3935 43.5871 44.3743 43.6172 44.3612C43.6474 44.3481 43.6799 44.3413 43.7128 44.3413C43.7457 44.3413 43.7783 44.3481 43.8084 44.3612C43.8386 44.3743 43.8658 44.3935 43.8882 44.4176C43.9107 44.4417 43.9279 44.4701 43.939 44.5011C43.95 44.5322 43.9545 44.5651 43.9523 44.598V46.8137C43.9523 48.05 43.2433 48.697 42.1826 48.697C41.1219 48.697 40.4229 48.0544 40.4229 46.8547Z" fill="#182958"/>
<path id="Vector_14" d="M45.0837 44.6043C45.0848 44.5417 45.1101 44.4821 45.1542 44.4379C45.1984 44.3937 45.2579 44.3683 45.3204 44.3672H45.3745C45.4192 44.3678 45.463 44.3798 45.5017 44.4021C45.5404 44.4244 45.5728 44.4562 45.5958 44.4946L47.11 46.7745L48.623 44.4946C48.6457 44.4559 48.678 44.4239 48.7168 44.4015C48.7556 44.3792 48.7995 44.3674 48.8443 44.3672H48.8985C48.9608 44.3683 49.0202 44.3937 49.0642 44.438C49.1081 44.4822 49.1332 44.5418 49.134 44.6043V48.4185C49.1344 48.4818 49.1098 48.5427 49.0658 48.5881C49.0217 48.6334 48.9616 48.6597 48.8985 48.6611C48.8346 48.66 48.7736 48.634 48.7284 48.5888C48.6833 48.5435 48.6574 48.4825 48.6562 48.4185V45.2534L47.3002 47.2475C47.2803 47.2836 47.2514 47.3138 47.2163 47.3352C47.1812 47.3565 47.1411 47.3683 47.1 47.3694C47.0582 47.3683 47.0173 47.3566 46.9813 47.3352C46.9453 47.3139 46.9154 47.2837 46.8943 47.2475L45.5449 45.259V48.424C45.5449 48.486 45.5203 48.5455 45.4765 48.5893C45.4328 48.6332 45.3734 48.6578 45.3115 48.6578C45.2496 48.6578 45.1902 48.6332 45.1465 48.5893C45.1027 48.5455 45.0781 48.486 45.0781 48.424L45.0837 44.6043Z" fill="#182958"/>
<path id="Vector_15" d="M50.3386 44.598C50.3363 44.5651 50.3409 44.5322 50.3519 44.5011C50.3629 44.4701 50.3802 44.4417 50.4027 44.4176C50.4251 44.3935 50.4523 44.3743 50.4824 44.3612C50.5126 44.3481 50.5451 44.3413 50.578 44.3413C50.6109 44.3413 50.6435 44.3481 50.6736 44.3612C50.7038 44.3743 50.731 44.3935 50.7534 44.4176C50.7759 44.4417 50.7931 44.4701 50.8042 44.5011C50.8152 44.5322 50.8197 44.5651 50.8175 44.598V46.9244L53.2331 44.444C53.2572 44.4184 53.2861 44.3977 53.3182 44.3833C53.3503 44.3689 53.3849 44.3609 53.42 44.3598C53.4813 44.3621 53.5393 44.3879 53.5821 44.4318C53.625 44.4757 53.6493 44.5344 53.6501 44.5958C53.6493 44.6279 53.6419 44.6596 53.6284 44.6887C53.6149 44.7179 53.5956 44.7439 53.5716 44.7653L52.0696 46.2542L53.68 48.2483C53.7229 48.2969 53.7465 48.3596 53.7463 48.4244C53.7449 48.4883 53.719 48.5492 53.6738 48.5944C53.6287 48.6396 53.5679 48.6656 53.5041 48.6671C53.4651 48.6666 53.4268 48.6562 53.393 48.6369C53.3591 48.6175 53.3307 48.5897 53.3105 48.5563L51.73 46.5855L50.8164 47.5016V48.4233C50.8186 48.4562 50.8141 48.4892 50.8031 48.5202C50.792 48.5513 50.7748 48.5797 50.7523 48.6038C50.7299 48.6278 50.7027 48.647 50.6725 48.6601C50.6424 48.6733 50.6098 48.68 50.5769 48.68C50.544 48.68 50.5115 48.6733 50.4813 48.6601C50.4512 48.647 50.424 48.6278 50.4015 48.6038C50.3791 48.5797 50.3618 48.5513 50.3508 48.5202C50.3398 48.4892 50.3352 48.4562 50.3375 48.4233L50.3386 44.598Z" fill="#182958"/>
<path id="Vector_16" d="M54.6611 44.6043C54.6623 44.5417 54.6876 44.4821 54.7317 44.4379C54.7759 44.3937 54.8354 44.3683 54.8978 44.3672H54.952C54.9966 44.3681 55.0403 44.3803 55.0789 44.4025C55.1176 44.4248 55.15 44.4565 55.1732 44.4946L56.6863 46.7745L58.1994 44.4946C58.2221 44.4559 58.2544 44.4239 58.2932 44.4015C58.332 44.3792 58.3759 44.3674 58.4206 44.3672H58.4848C58.5472 44.3683 58.6067 44.3937 58.6509 44.4379C58.695 44.4821 58.7203 44.5417 58.7215 44.6043V48.4185C58.7215 48.4819 58.6967 48.5428 58.6525 48.5881C58.6083 48.6335 58.5481 48.6597 58.4848 48.6611C58.421 48.6597 58.3602 48.6337 58.3151 48.5885C58.2699 48.5433 58.244 48.4824 58.2425 48.4185V45.2534L56.8865 47.2475C56.8668 47.2835 56.8381 47.3136 56.8032 47.335C56.7683 47.3564 56.7283 47.3683 56.6874 47.3694C56.6454 47.3684 56.6044 47.3567 56.5682 47.3354C56.532 47.314 56.5019 47.2838 56.4806 47.2475L55.1312 45.259V48.424C55.1312 48.486 55.1066 48.5455 55.0629 48.5893C55.0191 48.6332 54.9597 48.6578 54.8978 48.6578C54.8359 48.6578 54.7766 48.6332 54.7328 48.5893C54.689 48.5455 54.6645 48.486 54.6645 48.424L54.6611 44.6043Z" fill="#182958"/>
<path id="Vector_17" d="M61.7754 44.5977C61.7754 44.5342 61.8006 44.4734 61.8454 44.4285C61.8902 44.3836 61.9509 44.3584 62.0143 44.3584C62.0776 44.3584 62.1384 44.3836 62.1832 44.4285C62.228 44.4734 62.2532 44.5342 62.2532 44.5977V48.4186C62.2532 48.482 62.228 48.5429 62.1832 48.5878C62.1384 48.6327 62.0776 48.6579 62.0143 48.6579C61.9509 48.6579 61.8902 48.6327 61.8454 48.5878C61.8006 48.5429 61.7754 48.482 61.7754 48.4186V44.5977Z" fill="#182958"/>
<path id="Vector_18" d="M63.4156 45.7023C63.4152 45.6405 63.4392 45.581 63.4822 45.5367C63.5252 45.4923 63.5839 45.4667 63.6456 45.4652C63.6768 45.4648 63.7077 45.4706 63.7366 45.4824C63.7654 45.4942 63.7916 45.5116 63.8136 45.5337C63.8356 45.5559 63.8529 45.5822 63.8645 45.6111C63.8761 45.6401 63.8818 45.6711 63.8812 45.7023V46.0413C63.9867 45.8507 64.1424 45.6927 64.3314 45.5847C64.5204 45.4766 64.7354 45.4227 64.953 45.4287C65.7095 45.4287 66.1519 45.9383 66.1519 46.6838V48.4242C66.1541 48.4562 66.1497 48.4883 66.139 48.5185C66.1283 48.5487 66.1115 48.5764 66.0897 48.5998C66.0679 48.6233 66.0415 48.6419 66.0121 48.6547C65.9828 48.6675 65.9511 48.6741 65.9191 48.6741C65.8871 48.6741 65.8554 48.6675 65.8261 48.6547C65.7967 48.6419 65.7703 48.6233 65.7485 48.5998C65.7267 48.5764 65.7099 48.5487 65.6992 48.5185C65.6885 48.4883 65.6841 48.4562 65.6863 48.4242V46.7991C65.6863 46.2174 65.3711 45.853 64.8202 45.853C64.2694 45.853 63.8812 46.2474 63.8812 46.8356V48.4242C63.8826 48.4551 63.8776 48.4859 63.8667 48.5147C63.8558 48.5436 63.8391 48.5699 63.8177 48.5921C63.7962 48.6143 63.7705 48.6319 63.7421 48.6438C63.7136 48.6557 63.6831 48.6616 63.6522 48.6613C63.621 48.6618 63.5901 48.6559 63.5611 48.6442C63.5322 48.6324 63.506 48.615 63.4839 48.5929C63.4618 48.5708 63.4444 48.5445 63.4327 48.5155C63.4209 48.4865 63.4151 48.4555 63.4156 48.4242V45.7023Z" fill="#182958"/>
<path id="Vector_19" d="M70.1239 48.4241C70.1239 48.4861 70.0993 48.5455 70.0555 48.5894C70.0118 48.6332 69.9524 48.6578 69.8905 48.6578C69.8286 48.6578 69.7692 48.6332 69.7255 48.5894C69.6817 48.5455 69.6571 48.4861 69.6571 48.4241V47.9998C69.4027 48.3753 69.0333 48.6966 68.4581 48.6966C67.7082 48.6966 66.9639 48.1028 66.9639 47.0725V47.0604C66.9639 46.0356 67.7082 45.4285 68.4581 45.4285C69.0399 45.4285 69.4149 45.7443 69.6571 46.0932V44.4104C69.6559 44.3795 69.661 44.3487 69.672 44.3199C69.6831 44.291 69.6999 44.2647 69.7214 44.2425C69.7429 44.2203 69.7687 44.2028 69.7972 44.1909C69.8257 44.179 69.8563 44.173 69.8872 44.1734C69.9184 44.1729 69.9494 44.1787 69.9783 44.1905C70.0072 44.2023 70.0335 44.2197 70.0555 44.2418C70.0776 44.2639 70.095 44.2902 70.1068 44.3192C70.1185 44.3482 70.1243 44.3792 70.1239 44.4104V48.4241ZM67.4439 47.0537V47.0659C67.4439 47.8059 67.9582 48.279 68.55 48.279C69.1417 48.279 69.6826 47.7871 69.6826 47.0659V47.0537C69.688 46.8998 69.663 46.7464 69.6089 46.6022C69.5548 46.4581 69.4727 46.3261 69.3674 46.214C69.2621 46.1018 69.1356 46.0116 68.9953 45.9487C68.855 45.8858 68.7036 45.8513 68.55 45.8473C67.9383 45.8473 67.4439 46.296 67.4439 47.0537Z" fill="#182958"/>
<path id="Vector_20" d="M70.9713 47.0825V47.0703C70.9697 46.637 71.14 46.2207 71.4448 45.9131C71.7496 45.6055 72.164 45.4318 72.5967 45.4302C73.0293 45.4286 73.4449 45.5992 73.752 45.9045C74.0591 46.2098 74.2326 46.6248 74.2342 47.0581V47.0703C74.2355 47.2862 74.194 47.5002 74.1119 47.6998C74.0299 47.8994 73.909 48.0807 73.7564 48.2331C73.6037 48.3854 73.4223 48.5059 73.2227 48.5874C73.0232 48.6688 72.8094 48.7098 72.5939 48.7077C72.3801 48.7102 72.168 48.6699 71.97 48.5891C71.772 48.5083 71.5921 48.3887 71.4409 48.2373C71.2898 48.0859 71.1703 47.9057 71.0897 47.7074C71.009 47.5091 70.9688 47.2966 70.9713 47.0825ZM73.7564 47.0825V47.0703C73.7564 46.3979 73.2531 45.8462 72.5939 45.8462C71.9159 45.8462 71.4491 46.4001 71.4491 47.0581V47.0703C71.4491 47.7439 71.9457 48.2889 72.6061 48.2889C73.2841 48.2845 73.7564 47.7395 73.7564 47.0825Z" fill="#182958"/>
<path id="Vector_21" d="M75.0757 45.7023C75.0754 45.6405 75.0993 45.581 75.1424 45.5367C75.1854 45.4924 75.2441 45.4667 75.3058 45.4653C75.337 45.4648 75.368 45.4706 75.3969 45.4824C75.4258 45.4941 75.4521 45.5116 75.4741 45.5337C75.4962 45.5558 75.5136 45.5821 75.5254 45.6111C75.5371 45.64 75.5429 45.6711 75.5425 45.7023V46.0413C75.6476 45.8506 75.8031 45.6925 75.9919 45.5845C76.1808 45.4764 76.3957 45.4225 76.6131 45.4287C77.3697 45.4287 77.8121 45.9383 77.8121 46.6839V48.4243C77.8143 48.4562 77.8099 48.4883 77.7992 48.5185C77.7885 48.5487 77.7717 48.5764 77.7499 48.5998C77.728 48.6233 77.7016 48.642 77.6723 48.6547C77.6429 48.6675 77.6113 48.6741 77.5793 48.6741C77.5473 48.6741 77.5156 48.6675 77.4863 48.6547C77.4569 48.642 77.4305 48.6233 77.4087 48.5998C77.3868 48.5764 77.37 48.5487 77.3593 48.5185C77.3486 48.4883 77.3442 48.4562 77.3464 48.4243V46.7991C77.3464 46.2175 77.0312 45.853 76.4804 45.853C75.9296 45.853 75.5425 46.2474 75.5425 46.8356V48.4243C75.5437 48.4552 75.5386 48.486 75.5275 48.5148C75.5165 48.5437 75.4997 48.57 75.4782 48.5922C75.4567 48.6144 75.4309 48.6319 75.4024 48.6438C75.3739 48.6557 75.3433 48.6617 75.3124 48.6613C75.2812 48.6618 75.2502 48.656 75.2213 48.6442C75.1924 48.6324 75.1661 48.615 75.144 48.5929C75.122 48.5708 75.1046 48.5445 75.0928 48.5155C75.0811 48.4865 75.0753 48.4555 75.0757 48.4243V45.7023Z" fill="#182958"/>
<path id="Vector_22" d="M80.1736 48.7034C79.3142 48.7034 78.6118 48.0387 78.6118 47.0727V47.0605C78.6118 46.1565 79.2467 45.4287 80.1127 45.4287C81.0385 45.4287 81.5661 46.1865 81.5661 47.0173C81.5661 47.0761 81.5428 47.1325 81.5013 47.174C81.4598 47.2156 81.4036 47.2389 81.3449 47.2389H79.0841C79.1505 47.918 79.6283 48.3002 80.1902 48.3002C80.5266 48.3024 80.8504 48.1718 81.0916 47.9368C81.1309 47.9014 81.1827 47.8831 81.2354 47.8859C81.2882 47.8887 81.3378 47.9124 81.3731 47.9518C81.4084 47.9912 81.4267 48.043 81.4239 48.0958C81.4211 48.1487 81.3975 48.1983 81.3582 48.2337C81.2036 48.3895 81.0186 48.5116 80.8148 48.5924C80.611 48.6732 80.3927 48.711 80.1736 48.7034ZM81.0994 46.8899C81.0507 46.3205 80.7244 45.8231 80.1039 45.8231C79.5597 45.8231 79.1472 46.2784 79.0874 46.8899H81.0994Z" fill="#182958"/>
<path id="Vector_23" d="M82.2199 48.3013C82.1935 48.2817 82.1721 48.2561 82.1573 48.2267C82.1425 48.1972 82.1348 48.1648 82.1348 48.1318C82.1351 48.1051 82.1406 48.0787 82.1511 48.0541C82.1616 48.0296 82.1769 48.0074 82.196 47.9887C82.2151 47.9701 82.2377 47.9554 82.2625 47.9456C82.2873 47.9357 82.3138 47.9309 82.3405 47.9313C82.3803 47.9311 82.4192 47.944 82.4511 47.9679C82.7414 48.1775 83.0887 48.2935 83.4466 48.3002C83.8215 48.3002 84.0947 48.1063 84.0947 47.8028V47.7906C84.0947 47.476 83.7253 47.3541 83.3138 47.2367C82.8227 47.0971 82.2786 46.9276 82.2786 46.3504V46.3383C82.2786 45.7987 82.7265 45.4409 83.3437 45.4409C83.6921 45.4489 84.0334 45.5405 84.3392 45.7079C84.3731 45.7275 84.4012 45.7558 84.4206 45.7899C84.4401 45.8239 84.4501 45.8625 84.4498 45.9018C84.4495 45.9285 84.4439 45.9549 84.4334 45.9794C84.4229 46.004 84.4076 46.0262 84.3885 46.0449C84.3694 46.0635 84.3468 46.0782 84.322 46.088C84.2972 46.0979 84.2707 46.1027 84.244 46.1023C84.2083 46.1021 84.1732 46.0938 84.1412 46.0779C83.8938 45.9285 83.6125 45.845 83.3238 45.8353C82.9544 45.8353 82.7188 46.0292 82.7188 46.2906V46.3017C82.7188 46.5997 83.1059 46.7149 83.524 46.8423C84.0073 46.9874 84.5283 47.1747 84.5283 47.7397V47.7474C84.5283 48.3412 84.0383 48.6868 83.4145 48.6868C82.987 48.6794 82.5713 48.5452 82.2199 48.3013Z" fill="#182958"/>
<path id="Vector_24" d="M85.4043 44.5138C85.4043 44.4403 85.4334 44.3699 85.4853 44.3179C85.5371 44.266 85.6075 44.2368 85.6808 44.2368C85.7541 44.2368 85.8245 44.266 85.8763 44.3179C85.9282 44.3699 85.9573 44.4403 85.9573 44.5138V44.5924C85.9573 44.6659 85.9282 44.7363 85.8763 44.7883C85.8245 44.8402 85.7541 44.8694 85.6808 44.8694C85.6075 44.8694 85.5371 44.8402 85.4853 44.7883C85.4334 44.7363 85.4043 44.6659 85.4043 44.5924V44.5138ZM85.4463 45.7025C85.446 45.6406 85.4699 45.5812 85.513 45.5368C85.556 45.4925 85.6147 45.4668 85.6764 45.4654C85.7076 45.4649 85.7386 45.4708 85.7675 45.4825C85.7964 45.4943 85.8227 45.5117 85.8447 45.5338C85.8668 45.5559 85.8842 45.5823 85.896 45.6112C85.9077 45.6402 85.9135 45.6712 85.9131 45.7025V48.4244C85.9143 48.4553 85.9092 48.4861 85.8982 48.515C85.8871 48.5438 85.8703 48.5702 85.8488 48.5923C85.8273 48.6145 85.8015 48.6321 85.773 48.6439C85.7445 48.6558 85.7139 48.6618 85.683 48.6615C85.6518 48.6619 85.6208 48.6561 85.5919 48.6443C85.563 48.6326 85.5367 48.6151 85.5147 48.593C85.4926 48.5709 85.4752 48.5446 85.4634 48.5156C85.4517 48.4867 85.4459 48.4556 85.4463 48.4244V45.7025Z" fill="#182958"/>
<path id="Vector_25" d="M86.7603 47.7206V47.7084C86.7603 47.0437 87.3055 46.6959 88.0986 46.6959C88.4242 46.6926 88.7485 46.7378 89.0609 46.8299V46.7191C89.0609 46.1552 88.7158 45.8639 88.1285 45.8639C87.8487 45.8637 87.5722 45.9238 87.3177 46.04C87.2907 46.0514 87.2618 46.0578 87.2325 46.0589C87.179 46.0586 87.1277 46.0376 87.0893 46.0002C87.0509 45.9628 87.0285 45.9119 87.0268 45.8584C87.027 45.8172 87.0391 45.7769 87.0617 45.7425C87.0843 45.7081 87.1163 45.681 87.154 45.6645C87.4759 45.5208 87.8248 45.4483 88.1771 45.4518C88.6196 45.4518 88.958 45.5626 89.1881 45.7974C89.3993 46.0101 89.5088 46.3126 89.5088 46.7136V48.4296C89.51 48.4594 89.5052 48.4892 89.4946 48.5171C89.484 48.545 89.4679 48.5705 89.4473 48.592C89.4266 48.6136 89.4018 48.6307 89.3744 48.6424C89.3469 48.654 89.3174 48.6601 89.2876 48.66C89.2583 48.661 89.2291 48.6559 89.2019 48.6451C89.1746 48.6342 89.1499 48.618 89.1291 48.5972C89.1084 48.5764 89.0922 48.5516 89.0814 48.5243C89.0706 48.497 89.0655 48.4678 89.0664 48.4385V48.1571C88.9341 48.3308 88.7623 48.4704 88.5653 48.5642C88.3683 48.6581 88.1518 48.7034 87.9338 48.6966C87.3531 48.6966 86.7603 48.3631 86.7603 47.7206ZM89.0664 47.478V47.1756C88.7677 47.0866 88.4578 47.0415 88.1462 47.0415C87.5588 47.0415 87.2325 47.2963 87.2325 47.6907V47.7029C87.2325 48.0973 87.5953 48.3277 88.019 48.3277C88.5941 48.3277 89.0664 47.9754 89.0664 47.478Z" fill="#182958"/>
<path id="Vector_26" d="M80.7985 11.2202C80.2678 11.2202 79.7589 11.0091 79.3837 10.6332C79.0084 10.2574 78.7976 9.74766 78.7976 9.21615C78.7976 7.83523 78.2499 6.51086 77.275 5.5344C76.3001 4.55794 74.9778 4.00937 73.5991 4.00937C72.2204 4.00937 70.8981 4.55794 69.9232 5.5344C68.9483 6.51086 68.4006 7.83523 68.4006 9.21615C68.4069 9.48322 68.3598 9.74884 68.2621 9.99741C68.1644 10.246 68.018 10.4725 67.8317 10.6636C67.6453 10.8547 67.4227 11.0065 67.1768 11.1102C66.931 11.2139 66.667 11.2673 66.4003 11.2673C66.1336 11.2673 65.8695 11.2139 65.6237 11.1102C65.3779 11.0065 65.1553 10.8547 64.9689 10.6636C64.7826 10.4725 64.6362 10.246 64.5385 9.99741C64.4408 9.74884 64.3937 9.48322 64.4 9.21615C64.4265 6.78927 65.4077 4.47083 67.1305 2.76409C68.8533 1.05736 71.1787 0.100098 73.6019 0.100098C76.025 0.100098 78.3504 1.05736 80.0732 2.76409C81.796 4.47083 82.7772 6.78927 82.8038 9.21615C82.8038 9.4797 82.7519 9.74066 82.6511 9.98409C82.5502 10.2275 82.4025 10.4486 82.2162 10.6348C82.0299 10.8209 81.8088 10.9685 81.5656 11.0689C81.3223 11.1694 81.0616 11.2208 80.7985 11.2202Z" fill="#182958"/>
<path id="Vector_27" d="M59.1938 10.0469V38.8991H88.0001V10.0469L73.597 24.473L59.1938 10.0469Z" fill="#009EA9"/>
<path id="Vector_28" d="M87.9999 40.9023H59.1936C58.931 40.9024 58.6708 40.8507 58.4282 40.7501C58.1855 40.6495 57.965 40.502 57.7792 40.3159C57.5935 40.1299 57.4462 39.9091 57.3458 39.666C57.2453 39.4229 57.1937 39.1624 57.1938 38.8993V10.0471C57.1936 9.65081 57.3108 9.26333 57.5305 8.93372C57.7502 8.60411 58.0626 8.3472 58.4282 8.1955C58.7937 8.0438 59.196 8.00414 59.5841 8.08152C59.9722 8.15891 60.3286 8.34987 60.6083 8.63023L73.5967 21.6394L86.5852 8.63023C86.8649 8.34987 87.2213 8.15891 87.6094 8.08152C87.9975 8.00414 88.3998 8.0438 88.7653 8.1955C89.1309 8.3472 89.4433 8.60411 89.663 8.93372C89.8827 9.26333 89.9999 9.65081 89.9996 10.0471V38.8993C89.9996 39.4305 89.789 39.94 89.4139 40.3156C89.0389 40.6912 88.5303 40.9023 87.9999 40.9023ZM61.1934 36.8908H85.999V14.8839L75.0114 25.8901C74.8257 26.0763 74.6052 26.224 74.3624 26.3248C74.1197 26.4255 73.8595 26.4774 73.5967 26.4774C73.334 26.4774 73.0738 26.4255 72.8311 26.3248C72.5883 26.224 72.3678 26.0763 72.1821 25.8901L61.1934 14.8839V36.8908Z" fill="#182958"/>
<path id="Vector_29" d="M0.416547 32.578V23.773C0.414782 23.502 0.466799 23.2333 0.569575 22.9826C0.672352 22.7318 0.82384 22.504 1.01524 22.3124C1.20665 22.1208 1.43415 21.9692 1.68454 21.8664C1.93493 21.7636 2.20322 21.7117 2.47382 21.7136C2.74471 21.7115 3.0133 21.7634 3.26397 21.8663C3.51463 21.9692 3.74237 22.121 3.93392 22.3128C4.12547 22.5047 4.27701 22.7328 4.37972 22.9838C4.48243 23.2349 4.53427 23.5039 4.53221 23.7752V32.4739C4.53221 35.5248 6.05526 37.1035 8.56713 37.1035C11.079 37.1035 12.602 35.578 12.602 32.6068V23.773C12.5957 23.4983 12.6442 23.2251 12.7448 22.9695C12.8453 22.7139 12.9959 22.4809 13.1876 22.2844C13.3793 22.0879 13.6083 21.9317 13.8612 21.8251C14.114 21.7185 14.3855 21.6636 14.6599 21.6636C14.9342 21.6636 15.2058 21.7185 15.4586 21.8251C15.7114 21.9317 15.9404 22.0879 16.1321 22.2844C16.3239 22.4809 16.4744 22.7139 16.575 22.9695C16.6755 23.2251 16.7241 23.4983 16.7177 23.773V32.4451C16.7177 38.1194 13.5378 40.9022 8.51293 40.9022C3.48808 40.9022 0.416547 38.0917 0.416547 32.578Z" fill="#182958"/>
<path id="Vector_30" d="M39.5247 23.897C39.5247 23.3505 39.7414 22.8264 40.1272 22.4399C40.513 22.0535 41.0363 21.8364 41.5819 21.8364C42.1276 21.8364 42.6508 22.0535 43.0367 22.4399C43.4225 22.8264 43.6392 23.3505 43.6392 23.897L43.6315 30.1872L51.2301 22.654C51.7389 22.1466 52.2466 21.853 52.9677 21.8542C54.1169 21.8542 54.8646 22.7404 54.8635 23.7563C54.8635 24.3988 54.5682 24.8796 54.1125 25.3072L48.8421 30.226L54.5793 37.4601C54.8989 37.8611 55.1389 38.2898 55.1378 38.9058C55.1378 40.0568 54.253 40.912 53.0518 40.9109C52.2499 40.9109 51.7688 40.5077 51.3153 39.9139L45.9796 32.9025L43.6259 35.0937L43.6204 38.8415C43.62 39.1121 43.5665 39.38 43.4628 39.6298C43.359 39.8797 43.2072 40.1066 43.0159 40.2977C42.8246 40.4888 42.5976 40.6403 42.3479 40.7435C42.0981 40.8467 41.8305 40.8997 41.5604 40.8993C41.2902 40.8989 41.0228 40.8453 40.7733 40.7414C40.5238 40.6375 40.2972 40.4854 40.1065 40.2938C39.9157 40.1022 39.7645 39.8749 39.6614 39.6247C39.5584 39.3746 39.5055 39.1066 39.5059 38.836L39.5247 23.897Z" fill="#182958"/>
<path id="Vector_31" d="M18.7637 23.9602C18.7615 23.689 18.8132 23.4201 18.9158 23.1691C19.0184 22.9181 19.1699 22.6901 19.3614 22.4983C19.5529 22.3065 19.7805 22.1548 20.0311 22.052C20.2817 21.9493 20.5502 21.8975 20.821 21.8997H21.2756C21.6545 21.8936 22.0281 21.9898 22.3572 22.1781C22.6863 22.3664 22.9587 22.6398 23.146 22.9698L28.1166 31.0791L33.1127 22.9433C33.5407 22.2475 34.1281 21.8997 34.9565 21.8997H35.4111C35.6819 21.8975 35.9504 21.9493 36.201 22.052C36.4516 22.1548 36.6793 22.3065 36.8707 22.4983C37.0622 22.6901 37.2137 22.9181 37.3163 23.1691C37.4189 23.4201 37.4706 23.689 37.4684 23.9602V38.8416C37.4684 39.3852 37.2528 39.9065 36.8691 40.2908C36.4853 40.6752 35.9649 40.8911 35.4222 40.8911C34.8795 40.8911 34.359 40.6752 33.9753 40.2908C33.5915 39.9065 33.3759 39.3852 33.3759 38.8416V29.5005L29.768 35.0673C29.341 35.7098 28.8068 36.1108 28.058 36.1108C27.3092 36.1108 26.775 35.7098 26.348 35.0673L22.7987 29.5791V38.8937C22.7984 39.1595 22.7455 39.4227 22.643 39.6679C22.5406 39.9131 22.3906 40.1355 22.2017 40.3223C22.0128 40.5091 21.7889 40.6565 21.5428 40.7561C21.2967 40.8556 21.0333 40.9053 20.7679 40.9022C20.5041 40.9047 20.2424 40.8545 19.9982 40.7545C19.7539 40.6545 19.5321 40.5067 19.3455 40.3198C19.159 40.1329 19.0116 39.9106 18.9119 39.6659C18.8122 39.4212 18.7622 39.1591 18.7648 38.8948L18.7637 23.9602Z" fill="#182958"/>
<path id="Vector_32" d="M25.3872 11.0465C25.3861 10.9098 25.4121 10.7742 25.4637 10.6477C25.5154 10.5212 25.5916 10.4062 25.6881 10.3095C25.7846 10.2128 25.8993 10.1362 26.0255 10.0844C26.1518 10.0325 26.2871 10.0063 26.4236 10.0074H29.2374C31.485 10.0074 32.8443 11.3367 32.8443 13.271V13.2943C32.8443 15.4789 31.1487 16.6111 29.035 16.6111H27.46V18.4855C27.46 18.7608 27.3508 19.0249 27.1565 19.2195C26.9621 19.4142 26.6985 19.5236 26.4236 19.5236C26.1488 19.5236 25.8852 19.4142 25.6908 19.2195C25.4964 19.0249 25.3872 18.7608 25.3872 18.4855V11.0465ZM29.1025 14.7677C30.1389 14.7677 30.745 14.1473 30.745 13.3386V13.3109C30.745 12.3803 30.0991 11.8818 29.0616 11.8818H27.46V14.7677H29.1025Z" fill="#009EA9"/>
<path id="Vector_33" d="M34.2896 17.3156V17.289C34.2896 15.7115 35.4874 14.9825 37.1974 14.9825C37.7983 14.9775 38.3954 15.0779 38.9616 15.2794V15.1587C38.9616 14.309 38.4362 13.8371 37.4131 13.8371C36.9344 13.832 36.4578 13.9 35.9995 14.0387C35.9047 14.0741 35.8043 14.0925 35.7031 14.093C35.5923 14.0949 35.4822 14.0746 35.3793 14.0335C35.2764 13.9923 35.1827 13.9309 35.1037 13.8531C35.0247 13.7752 34.962 13.6823 34.9193 13.5799C34.8765 13.4775 34.8546 13.3676 34.8547 13.2566C34.8551 13.0833 34.9083 12.9144 35.0071 12.7723C35.1059 12.6301 35.2457 12.5216 35.4078 12.4611C36.0548 12.2185 36.755 12.0845 37.7106 12.0845C38.8277 12.0845 39.6352 12.3803 40.1439 12.8932C40.6815 13.4327 40.9237 14.2281 40.9237 15.1986V18.4888C40.9239 18.6192 40.8981 18.7482 40.848 18.8685C40.7979 18.9888 40.7243 19.0979 40.6317 19.1895C40.5391 19.2811 40.4291 19.3532 40.3084 19.4018C40.1876 19.4504 40.0584 19.4745 39.9283 19.4726C39.3354 19.4726 38.945 19.0549 38.945 18.6229V18.6118C38.4472 19.1657 37.7604 19.5291 36.7649 19.5291C35.4067 19.5268 34.2896 18.7447 34.2896 17.3156ZM38.9881 16.8393V16.4748C38.5766 16.2935 38.1314 16.2017 37.6818 16.2056C36.807 16.2056 36.2683 16.5557 36.2683 17.2026V17.2292C36.2683 17.7831 36.7262 18.1055 37.3865 18.1055C38.3422 18.111 38.9881 17.5848 38.9881 16.8393Z" fill="#009EA9"/>
<path id="Vector_34" d="M42.3716 11.1271C42.3704 10.9904 42.3964 10.8548 42.4481 10.7283C42.4997 10.6017 42.576 10.4868 42.6725 10.39C42.7689 10.2933 42.8836 10.2168 43.0099 10.1649C43.1362 10.1131 43.2715 10.0869 43.408 10.0879H46.0471C49.008 10.0879 51.0542 12.1241 51.0542 14.7807V14.8073C51.0542 17.466 49.008 19.5266 46.0471 19.5266H43.408C43.2716 19.5276 43.1364 19.5015 43.0102 19.4497C42.884 19.3979 42.7693 19.3215 42.6729 19.2249C42.5764 19.1283 42.5001 19.0134 42.4484 18.887C42.3967 18.7606 42.3706 18.6252 42.3716 18.4886V11.1271ZM46.0471 17.6521C47.7427 17.6521 48.8874 16.5067 48.8874 14.8338V14.8073C48.8874 13.1355 47.7427 11.9624 46.0471 11.9624H44.4455V17.6521H46.0471Z" fill="#009EA9"/>
<path id="Vector_35" d="M52.5 10.4934C52.5 9.89963 52.9977 9.53516 53.6448 9.53516C54.2918 9.53516 54.7884 9.89963 54.7884 10.4934V10.5244C54.7884 11.1171 54.2907 11.4949 53.6448 11.4949C52.9988 11.4949 52.5 11.1171 52.5 10.5244V10.4934ZM52.6217 13.1622C52.6217 12.8904 52.7295 12.6298 52.9213 12.4376C53.1132 12.2454 53.3734 12.1374 53.6448 12.1374C53.9161 12.1374 54.1763 12.2454 54.3682 12.4376C54.5601 12.6298 54.6679 12.8904 54.6679 13.1622V18.5008C54.6679 18.7726 54.5601 19.0332 54.3682 19.2254C54.1763 19.4176 53.9161 19.5255 53.6448 19.5255C53.3734 19.5255 53.1132 19.4176 52.9213 19.2254C52.7295 19.0332 52.6217 18.7726 52.6217 18.5008V13.1622Z" fill="#009EA9"/>
</g>
</g>
</g>
<defs>
<clipPath id="clip0_2477_10041">
<rect width="89.5833" height="49.6128" fill="white" transform="translate(0.416504)"/>
</clipPath>
</defs>
</svg>
