<svg width="24" height="25" viewBox="0 0 24 25" fill="none" xmlns="http://www.w3.org/2000/svg">
<path d="M21 15.5C21 16.0304 20.7893 16.5391 20.4142 16.9142C20.0391 17.2893 19.5304 17.5 19 17.5H7L3 21.5V5.5C3 4.96957 3.21071 4.46086 3.58579 4.08579C3.96086 3.71071 4.46957 3.5 5 3.5H19C19.5304 3.5 20.0391 3.71071 20.4142 4.08579C20.7893 4.46086 21 4.96957 21 5.5V15.5Z" stroke="#444B55" stroke-width="1.5" stroke-linecap="round" stroke-linejoin="round"/>
<path d="M12.45 10.625C12.45 10.8045 12.3045 10.95 12.125 10.95C11.9455 10.95 11.8 10.8045 11.8 10.625C11.8 10.4455 11.9455 10.3 12.125 10.3C12.3045 10.3 12.45 10.4455 12.45 10.625Z" fill="#444B55" stroke="#444B55" stroke-width="1.6"/>
<path d="M7.625 11.75C8.24632 11.75 8.75 11.2463 8.75 10.625C8.75 10.0037 8.24632 9.5 7.625 9.5C7.00368 9.5 6.5 10.0037 6.5 10.625C6.5 11.2463 7.00368 11.75 7.625 11.75Z" fill="#444B55"/>
<path d="M16.625 11.75C17.2463 11.75 17.75 11.2463 17.75 10.625C17.75 10.0037 17.2463 9.5 16.625 9.5C16.0037 9.5 15.5 10.0037 15.5 10.625C15.5 11.2463 16.0037 11.75 16.625 11.75Z" fill="#444B55"/>
</svg>
