<svg width="24" height="25" viewBox="0 0 24 25" fill="none" xmlns="http://www.w3.org/2000/svg">
<path d="M15.9259 12.2957L16.7508 13.1207C16.7509 13.1207 16.7509 13.1208 16.751 13.1208L16.751 13.1209L16.7157 13.1562C16.9266 13.3646 17.094 13.6128 17.2083 13.8864C17.3226 14.16 17.3814 14.4535 17.3814 14.75C17.3814 15.0465 17.3226 15.34 17.2083 15.6136C17.094 15.8871 16.9266 16.1353 16.7157 16.3437L15.9259 12.2957ZM15.9259 12.2957L21.6241 7.18407L21.6241 7.18412L21.6261 7.1822L21.6541 7.15414C21.9377 6.87165 22.1627 6.53593 22.3162 6.16627C22.4698 5.7966 22.5488 5.40025 22.5488 4.99997C22.5488 4.59969 22.4698 4.20334 22.3162 3.83368C22.1627 3.46401 21.9377 3.1283 21.6541 2.8458L21.6188 2.88122M15.9259 12.2957L21.6188 7.11872C21.8977 6.84087 22.1191 6.51067 22.2701 6.14709C22.4211 5.7835 22.4988 5.39367 22.4988 4.99997C22.4988 4.60627 22.4211 4.21644 22.2701 3.85286C22.1191 3.48927 21.8977 3.15907 21.6188 2.88122M21.6188 2.88122C21.341 2.6023 21.0108 2.38098 20.6472 2.22997C20.2836 2.07896 19.8938 2.00122 19.5001 2.00122C19.1064 2.00122 18.7165 2.07896 18.353 2.22997C17.9894 2.38098 17.6592 2.6023 17.3813 2.88122L17.346 2.84587C17.6284 2.56231 17.9641 2.33732 18.3338 2.18379C18.7034 2.03026 19.0998 1.95122 19.5001 1.95122C19.9004 1.95122 20.2967 2.03026 20.6664 2.18379C21.036 2.33733 21.3717 2.56235 21.6542 2.84593L21.6188 2.88122ZM16.7508 16.3793C16.7509 16.3792 16.7509 16.3792 16.751 16.3791L17.3459 2.84593L17.3178 2.87399L17.3178 2.87394L17.316 2.87596L12.2043 8.57417L11.3794 7.7492C11.3793 7.74915 11.3793 7.74909 11.3792 7.74904C11.1662 7.53352 10.9125 7.36241 10.6329 7.24562C10.3533 7.12879 10.0532 7.06864 9.75007 7.06864C9.44697 7.06864 9.14688 7.12879 8.8672 7.24562C8.58756 7.36242 8.33388 7.53356 8.12085 7.7491C8.12082 7.74914 8.12079 7.74917 8.12075 7.7492L0.930361 14.9302L0.930169 14.9304C0.78006 15.082 0.69585 15.2867 0.69585 15.5C0.69585 15.7133 0.780059 15.918 0.930169 16.0695L0.930338 16.0697L8.43033 23.5697L8.43094 23.5703C8.58362 23.7179 8.78769 23.8004 9.00007 23.8004C9.21245 23.8004 9.41652 23.7179 9.5692 23.5703L9.56982 23.5697L16.7508 16.3793ZM8.97402 17.1241L6.61875 19.4886L5.12384 17.9937L7.47924 15.629L7.47928 15.629L7.48087 15.6273C7.61876 15.4751 7.69284 15.2757 7.68779 15.0704C7.68273 14.8651 7.59893 14.6697 7.45372 14.5244C7.30851 14.3792 7.11302 14.2954 6.90772 14.2904C6.70243 14.2853 6.50305 14.3594 6.35087 14.4973L6.35083 14.4972L6.34902 14.4991L3.99375 16.8636L2.63015 15.5L6.75007 11.3801L13.12 17.75L9.00007 21.8699L7.74884 20.6187L10.1042 18.254L10.1043 18.254L10.1059 18.2523C10.2438 18.1001 10.3178 17.9007 10.3128 17.6954C10.3077 17.4901 10.2239 17.2947 10.0787 17.1494C9.93351 17.0042 9.73802 16.9204 9.53272 16.9154C9.32743 16.9103 9.12805 16.9844 8.97587 17.1223L8.97583 17.1222L8.97402 17.1241ZM15.621 15.249L14.2501 16.6199L7.88015 10.25L9.25105 8.87908L9.25132 8.87881C9.31645 8.81267 9.39409 8.76014 9.47972 8.72429C9.56534 8.68844 9.65724 8.66998 9.75007 8.66998C9.8429 8.66998 9.9348 8.68844 10.0204 8.72429C10.106 8.76014 10.1837 8.81267 10.2488 8.87881L10.2491 8.87908L11.1115 9.74152C11.2598 9.89023 11.4367 10.0073 11.6315 10.0855C11.8263 10.1638 12.0351 10.2017 12.245 10.1968L12.2458 10.1968C12.4569 10.1886 12.6642 10.1382 12.8555 10.0483C13.0467 9.95854 13.218 9.83124 13.3592 9.67399L13.3592 9.67398L18.4851 3.95771C18.7639 3.72027 19.1219 3.59632 19.4879 3.61057C19.8551 3.62485 20.2033 3.7771 20.4631 4.03691C20.7229 4.29671 20.8752 4.64495 20.8895 5.0121C20.9037 5.37815 20.7798 5.73613 20.5423 6.01498L14.8261 11.1409L14.826 11.1409C14.6688 11.282 14.5415 11.4533 14.4517 11.6446C14.3619 11.8358 14.3114 12.0432 14.3032 12.2543L14.3032 12.2551C14.2984 12.465 14.3362 12.6737 14.4145 12.8685C14.4928 13.0634 14.6098 13.2403 14.7585 13.3885L15.621 14.251L15.6212 14.2512C15.6874 14.3164 15.7399 14.394 15.7757 14.4796C15.8116 14.5652 15.8301 14.6571 15.8301 14.75C15.8301 14.8428 15.8116 14.9347 15.7757 15.0203C15.7399 15.1059 15.6874 15.1836 15.6212 15.2487L15.621 15.249Z" fill="#444B55" stroke="#444B55" stroke-width="0.1"/>
</svg>
