<svg width="24" height="24" viewBox="0 0 24 24" fill="none" xmlns="http://www.w3.org/2000/svg">
<path d="M17 18.4307H13L8.54999 21.3907C7.88999 21.8307 7 21.3607 7 20.5607V18.4307C4 18.4307 2 16.4307 2 13.4307V7.43073C2 4.43073 4 2.43073 7 2.43073H17C20 2.43073 22 4.43073 22 7.43073V13.4307C22 16.4307 20 18.4307 17 18.4307Z" fill="#8F95B2"/>
<path d="M12 12.1107C11.59 12.1107 11.25 11.7707 11.25 11.3607V11.1508C11.25 9.99076 12.1 9.42074 12.42 9.20074C12.79 8.95074 12.91 8.78075 12.91 8.52075C12.91 8.02075 12.5 7.61072 12 7.61072C11.5 7.61072 11.09 8.02075 11.09 8.52075C11.09 8.93075 10.75 9.27075 10.34 9.27075C9.93003 9.27075 9.59003 8.93075 9.59003 8.52075C9.59003 7.19075 10.67 6.11072 12 6.11072C13.33 6.11072 14.41 7.19075 14.41 8.52075C14.41 9.66075 13.57 10.2307 13.26 10.4407C12.87 10.7007 12.75 10.8708 12.75 11.1508V11.3607C12.75 11.7807 12.41 12.1107 12 12.1107Z" fill="white"/>
<path d="M12 14.6007C11.58 14.6007 11.25 14.2607 11.25 13.8507C11.25 13.4407 11.59 13.1007 12 13.1007C12.41 13.1007 12.75 13.4407 12.75 13.8507C12.75 14.2607 12.42 14.6007 12 14.6007Z" fill="white"/>
</svg>
