<svg width="24" height="25" viewBox="0 0 24 25" fill="none" xmlns="http://www.w3.org/2000/svg">
<path d="M21.4099 9.60005H21.8999V12.5001C21.8999 13.5031 21.335 14.9187 19.8449 15.3032L19.7902 15.3173L19.7741 15.3715C19.5313 16.1872 18.9324 17.0145 17.8443 17.3034L17.7901 17.3178L17.7741 17.3715C17.6235 17.8768 17.3401 18.3837 16.8915 18.7638C16.4443 19.1426 15.8276 19.4001 14.9999 19.4001H11.4099H11.3684L11.3391 19.4295L8.63922 22.1393C8.2644 22.5142 7.63875 22.8501 6.95993 22.8501C6.43689 22.8501 5.8822 22.6609 5.36064 22.1393L2.36215 19.1409C2.3619 19.1406 2.36164 19.1404 2.36139 19.1401C2.03379 18.7977 1.73371 18.2775 1.6655 17.6947C1.59779 17.1162 1.75736 16.4691 2.36053 15.8609C2.36066 15.8607 2.36079 15.8606 2.36092 15.8605L3.07014 15.1613L3.09993 15.1319V15.0901V11.1315L7.51064 6.72076L7.5225 6.70891L7.52984 6.69383C8.07561 5.57305 9.14362 4.60005 10.9999 4.60005H13.5899H13.6315L13.6608 4.57055L15.36 2.86142C15.7024 2.53385 16.2226 2.23383 16.8053 2.16562C17.3839 2.09791 18.0311 2.25752 18.6394 2.8609C18.6394 2.86095 18.6395 2.861 18.6395 2.86104L21.6377 5.85922C21.638 5.85948 21.6382 5.85974 21.6385 5.86C21.9659 6.20225 22.2661 6.72497 22.3344 7.30915C22.4021 7.88894 22.2425 8.53579 21.6398 9.13876C21.6396 9.13896 21.6394 9.13915 21.6392 9.13934L21.3404 9.42815L21.1626 9.60005H21.4099ZM16.0999 16.5001V15.6001H16.9999C17.4299 15.6001 17.7119 15.4526 17.883 15.2297C18.0504 15.0116 18.0999 14.7365 18.0999 14.5001V13.6001H18.9999C19.4299 13.6001 19.7119 13.4526 19.883 13.2297C20.0504 13.0116 20.0999 12.7365 20.0999 12.5001V11.5001V11.4001H19.9999H12.9999H12.8999V11.5001C12.8999 12.0857 12.7057 12.813 12.2466 13.3917C11.7904 13.9667 11.0691 14.4001 9.99993 14.4001C8.93077 14.4001 8.2095 13.9667 7.75327 13.3917C7.29419 12.813 7.09993 12.0857 7.09993 11.5001V9.91005V9.66863L6.92922 9.83934L4.92922 11.8393L4.89993 11.8686V11.9101V15.8689L3.63922 17.1393L3.63895 17.1396L3.63846 17.1401C3.5853 17.1933 3.49365 17.2849 3.46697 17.415C3.4382 17.5552 3.48871 17.7093 3.6469 17.8784L3.64686 17.8784L3.64934 17.8809L6.63922 20.8608L6.63934 20.8609L6.63997 20.8615C6.69313 20.9147 6.78479 21.0063 6.91483 21.033C7.05509 21.0618 7.20914 21.0113 7.37824 20.8531L7.37828 20.8531L7.38064 20.8508L10.6314 17.6001H14.9999C15.4299 17.6001 15.7119 17.4526 15.883 17.2297C16.0504 17.0116 16.0999 16.7365 16.0999 16.5001ZM18.5899 9.60005H18.6315L18.6608 9.57055L20.3606 7.86076L20.3608 7.86055L20.3614 7.86001C20.4146 7.80685 20.5062 7.71519 20.5329 7.58515C20.5617 7.44489 20.5112 7.29084 20.353 7.12174L20.353 7.12169L20.3505 7.11922L17.3606 4.13934L17.3605 4.13922L17.3599 4.13859C17.3067 4.08543 17.2151 3.99377 17.085 3.96709C16.9448 3.93832 16.7907 3.98883 16.6216 4.14702L16.6216 4.14698L16.6192 4.14934L14.3685 6.40005H10.9999C10.0508 6.40005 9.51818 6.8026 9.22842 7.27529C8.94337 7.74031 8.89993 8.26166 8.89993 8.50005V11.5001C8.89993 11.7365 8.94945 12.0116 9.11686 12.2297C9.28797 12.4526 9.56995 12.6001 9.99993 12.6001C10.4299 12.6001 10.7119 12.4526 10.883 12.2297C11.0504 12.0116 11.0999 11.7365 11.0999 11.5001V9.60005H18.5899Z" fill="#444B55" stroke="#444B55" stroke-width="0.2"/>
</svg>
