<svg width="13" height="13" viewBox="0 0 13 13" fill="none" xmlns="http://www.w3.org/2000/svg">
<path d="M10.1206 2.41226C10.0391 2.37961 9.74581 2.36328 9.66434 2.37961C9.43622 2.42859 9.2244 2.57553 9.15923 2.64083L9.14293 2.96736C8.86594 3.22859 8.44229 3.21226 8.1653 2.95104C7.77424 2.59185 7.20395 2.36328 6.64996 2.36328C6.19373 2.36328 5.63974 2.49389 5.28127 2.73879C5.1998 2.78777 5.23239 2.96736 5.23239 2.96736C4.95539 3.22859 4.53175 3.24491 4.25475 2.98369L3.76593 2.51022C3.70076 2.44491 3.61929 2.41226 3.53782 2.39593C3.08159 2.28165 2.69053 2.59185 2.64165 2.65716C2.59277 2.72246 2.56018 2.78777 2.56018 2.8694C2.56018 2.8694 8.89852 10.5265 8.9637 10.5265H9.94134C10.0554 10.5265 10.2509 10.5102 10.5279 10.2163C10.6746 10.0531 10.6909 9.67757 10.6909 9.56328V3.86532C10.6746 2.59185 10.3487 2.52655 10.1206 2.41226Z" fill="#DD782C"/>
<path d="M9.85986 2.72185C9.81098 2.65655 9.7458 2.59124 9.66433 2.55859C9.56657 2.52594 9.4851 2.50961 9.38734 2.52594C9.30587 2.54226 9.2244 2.59124 9.15922 2.64022L8.6704 3.11369C8.39341 3.37492 7.96977 3.35859 7.69277 3.09736C7.30171 2.72185 6.78031 2.52594 6.22631 2.52594C5.67232 2.52594 5.15091 2.73818 4.75986 3.09736C4.48286 3.35859 4.05922 3.37492 3.78222 3.11369L3.2934 2.64022C3.22823 2.59124 3.14676 2.54226 3.06529 2.52594C2.98382 2.50961 2.88605 2.52594 2.80458 2.55859C2.72312 2.59124 2.65794 2.64022 2.60906 2.72185C2.56018 2.80349 2.52759 2.86879 2.52759 2.95043V10.0851C2.52759 10.1341 2.54388 10.1994 2.56018 10.2484C2.57647 10.2974 2.60906 10.3463 2.65794 10.3953C2.70682 10.428 2.7557 10.4606 2.80458 10.4933C2.85347 10.5259 2.91864 10.5259 2.98382 10.5259H9.4851C9.59916 10.5259 9.71322 10.477 9.81098 10.3953C9.89245 10.3137 9.94133 10.1994 9.94133 10.0851V2.95043C9.94133 2.86879 9.90874 2.78716 9.85986 2.72185Z" fill="url(#paint0_linear_3374_26751)"/>
<path d="M5.91675 8.59939C5.70492 8.59939 5.5094 8.51776 5.36275 8.38715L4.28735 7.34225C3.99406 7.04837 3.99406 6.59123 4.28735 6.29735C4.59694 6.00348 5.08575 6.0198 5.37905 6.29735L5.91675 6.8198L7.36691 5.41572C7.6602 5.12184 8.14902 5.12184 8.4586 5.41572C8.75189 5.7096 8.76819 6.16674 8.4586 6.46062L6.47074 8.38715C6.32409 8.53409 6.12857 8.59939 5.91675 8.59939Z" fill="#FFCF33"/>
<path d="M5.91676 6.82098L5.37906 6.29853C5.08577 6.00466 4.59695 6.00466 4.28736 6.29853C3.97778 6.59241 3.97778 7.04955 4.28736 7.34343L4.84136 7.88221L5.91676 6.82098Z" fill="#F7DE61"/>
<defs>
<linearGradient id="paint0_linear_3374_26751" x1="6.23107" y1="3.6902" x2="6.23107" y2="8.96567" gradientUnits="userSpaceOnUse">
<stop stop-color="#F3AC4A"/>
<stop offset="1" stop-color="#F7931E"/>
</linearGradient>
</defs>
</svg>
