<svg width="19" height="20" viewBox="0 0 19 20" fill="none" xmlns="http://www.w3.org/2000/svg">
<path d="M11 12.5V4.5M11 12.5L16.504 15.645C16.6561 15.7319 16.8283 15.7773 17.0034 15.7767C17.1785 15.7761 17.3504 15.7295 17.5019 15.6416C17.6533 15.5537 17.7791 15.4276 17.8665 15.2759C17.9539 15.1241 17.9999 14.9521 18 14.777V2.223C17.9999 2.04788 17.9539 1.87585 17.8665 1.72411C17.7791 1.57237 17.6533 1.44625 17.5019 1.35837C17.3504 1.27048 17.1785 1.22392 17.0034 1.22333C16.8283 1.22273 16.6561 1.26814 16.504 1.355L11 4.5M11 12.5H8M11 4.5H5C3.93913 4.5 2.92172 4.92142 2.17157 5.67157C1.42143 6.42172 1 7.43913 1 8.5V8.5C1 9.56086 1.42143 10.5783 2.17157 11.3284C2.92172 12.0786 3.93913 12.5 5 12.5M5 12.5V17C5 17.3978 5.15804 17.7794 5.43934 18.0607C5.72064 18.342 6.10218 18.5 6.5 18.5C6.89782 18.5 7.27936 18.342 7.56066 18.0607C7.84196 17.7794 8 17.3978 8 17V12.5M5 12.5H8" stroke="#444B55" stroke-width="2" stroke-linecap="round" stroke-linejoin="round"/>
</svg>
