<svg width="32" height="32" viewBox="0 0 32 32" fill="none" xmlns="http://www.w3.org/2000/svg">
<path opacity="0.4" d="M28.4934 15.1867V23.1734C28.4934 26.8534 25.5067 29.84 21.8267 29.84H10.1734C6.49338 29.84 3.50671 26.8534 3.50671 23.1734V15.28C4.52005 16.3734 5.96005 17 7.52005 17C9.20005 17 10.8134 16.16 11.8267 14.8134C12.7334 16.16 14.28 17 16 17C17.7067 17 19.2267 16.2 20.1467 14.8667C21.1734 16.1867 22.76 17 24.4134 17C26.0267 17 27.4934 16.3467 28.4934 15.1867Z" fill="#009EA9"/>
<path d="M19.9867 1.66663H11.9867L11 11.48C10.92 12.3866 11.0533 13.24 11.3867 14.0133C12.16 15.8266 13.9733 17 16 17C18.0533 17 19.8267 15.8533 20.6267 14.0266C20.8667 13.4533 21.0133 12.7866 21.0267 12.1066V11.8533L19.9867 1.66663Z" fill="#009EA9"/>
<path opacity="0.6" d="M29.8133 11.0266L29.4266 7.33329C28.8666 3.30663 27.04 1.66663 23.1333 1.66663H18.0133L19 11.6666C19.0133 11.8 19.0266 11.9466 19.0266 12.2C19.1066 12.8933 19.32 13.5333 19.64 14.1066C20.6 15.8666 22.4666 17 24.4133 17C26.1866 17 27.7866 16.2133 28.7866 14.8266C29.5866 13.76 29.9466 12.4133 29.8133 11.0266Z" fill="#009EA9"/>
<path opacity="0.6" d="M8.78669 1.66663C4.86669 1.66663 3.05335 3.30663 2.48002 7.37329L2.12002 11.04C1.98669 12.4666 2.37336 13.8533 3.21336 14.9333C4.22669 16.2533 5.78669 17 7.52002 17C9.46669 17 11.3334 15.8666 12.28 14.1333C12.6267 13.5333 12.8534 12.84 12.92 12.12L13.96 1.67996H8.78669V1.66663Z" fill="#009EA9"/>
<path d="M15.1334 22.2134C13.44 22.3867 12.16 23.8267 12.16 25.5334V29.84H19.8267V26C19.84 23.2134 18.2 21.8934 15.1334 22.2134Z" fill="#009EA9"/>
</svg>