<svg width="24" height="25" viewBox="0 0 24 25" fill="none" xmlns="http://www.w3.org/2000/svg">
<mask id="path-1-inside-1_1979_26257" fill="white">
<path d="M19.5 3.125H4.5C3.90326 3.125 3.33097 3.36205 2.90901 3.78401C2.48705 4.20597 2.25 4.77826 2.25 5.375V19.625C2.25 20.2217 2.48705 20.794 2.90901 21.216C3.33097 21.6379 3.90326 21.875 4.5 21.875H19.5C20.0967 21.875 20.669 21.6379 21.091 21.216C21.5129 20.794 21.75 20.2217 21.75 19.625V5.375C21.75 4.77826 21.5129 4.20597 21.091 3.78401C20.669 3.36205 20.0967 3.125 19.5 3.125ZM20.25 19.625C20.25 19.8239 20.171 20.0147 20.0303 20.1553C19.8897 20.296 19.6989 20.375 19.5 20.375H4.5C4.30109 20.375 4.11032 20.296 3.96967 20.1553C3.82902 20.0147 3.75 19.8239 3.75 19.625V5.375C3.75 5.17609 3.82902 4.98532 3.96967 4.84467C4.11032 4.70402 4.30109 4.625 4.5 4.625H19.5C19.6989 4.625 19.8897 4.70402 20.0303 4.84467C20.171 4.98532 20.25 5.17609 20.25 5.375V19.625Z"/>
</mask>
<path d="M19.5 3.125H4.5C3.90326 3.125 3.33097 3.36205 2.90901 3.78401C2.48705 4.20597 2.25 4.77826 2.25 5.375V19.625C2.25 20.2217 2.48705 20.794 2.90901 21.216C3.33097 21.6379 3.90326 21.875 4.5 21.875H19.5C20.0967 21.875 20.669 21.6379 21.091 21.216C21.5129 20.794 21.75 20.2217 21.75 19.625V5.375C21.75 4.77826 21.5129 4.20597 21.091 3.78401C20.669 3.36205 20.0967 3.125 19.5 3.125ZM20.25 19.625C20.25 19.8239 20.171 20.0147 20.0303 20.1553C19.8897 20.296 19.6989 20.375 19.5 20.375H4.5C4.30109 20.375 4.11032 20.296 3.96967 20.1553C3.82902 20.0147 3.75 19.8239 3.75 19.625V5.375C3.75 5.17609 3.82902 4.98532 3.96967 4.84467C4.11032 4.70402 4.30109 4.625 4.5 4.625H19.5C19.6989 4.625 19.8897 4.70402 20.0303 4.84467C20.171 4.98532 20.25 5.17609 20.25 5.375V19.625Z" fill="#444B55"/>
<path d="M4.5 3.125V-4.875V3.125ZM2.25 5.375H-5.75H2.25ZM2.25 19.625H-5.75H2.25ZM4.5 21.875V29.875V21.875ZM19.5 21.875V29.875V21.875ZM21.75 19.625H29.75H21.75ZM21.75 5.375H29.75H21.75ZM4.5 4.625V12.625V4.625ZM19.5 -4.875H4.5V11.125H19.5V-4.875ZM4.5 -4.875C1.78153 -4.875 -0.825597 -3.79509 -2.74784 -1.87284L8.56586 9.44086C7.48753 10.5192 6.025 11.125 4.5 11.125V-4.875ZM-2.74784 -1.87284C-4.67009 0.0494027 -5.75 2.65653 -5.75 5.375H10.25C10.25 6.9 9.6442 8.36253 8.56586 9.44086L-2.74784 -1.87284ZM-5.75 5.375V19.625H10.25V5.375H-5.75ZM-5.75 19.625C-5.75 22.3435 -4.67009 24.9506 -2.74784 26.8728L8.56586 15.5591C9.6442 16.6375 10.25 18.1 10.25 19.625H-5.75ZM-2.74784 26.8728C-0.825595 28.7951 1.78153 29.875 4.5 29.875V13.875C6.02499 13.875 7.48753 14.4808 8.56586 15.5591L-2.74784 26.8728ZM4.5 29.875H19.5V13.875H4.5V29.875ZM19.5 29.875C22.2185 29.875 24.8256 28.7951 26.7478 26.8728L15.4341 15.5591C16.5125 14.4808 17.975 13.875 19.5 13.875V29.875ZM26.7478 26.8728C28.6701 24.9506 29.75 22.3435 29.75 19.625H13.75C13.75 18.1 14.3558 16.6375 15.4341 15.5591L26.7478 26.8728ZM29.75 19.625V5.375H13.75V19.625H29.75ZM29.75 5.375C29.75 2.65653 28.6701 0.0494051 26.7478 -1.87284L15.4341 9.44086C14.3558 8.36253 13.75 6.89999 13.75 5.375H29.75ZM26.7478 -1.87284C24.8256 -3.79509 22.2185 -4.875 19.5 -4.875V11.125C17.975 11.125 16.5125 10.5192 15.4341 9.44086L26.7478 -1.87284ZM12.25 19.625C12.25 17.7022 13.0138 15.8581 14.3735 14.4985L25.6872 25.8122C27.3281 24.1712 28.25 21.9456 28.25 19.625H12.25ZM14.3735 14.4985C15.7331 13.1388 17.5772 12.375 19.5 12.375V28.375C21.8206 28.375 24.0462 27.4531 25.6872 25.8122L14.3735 14.4985ZM19.5 12.375H4.5V28.375H19.5V12.375ZM4.5 12.375C6.42281 12.375 8.26688 13.1388 9.62652 14.4985L-1.68718 25.8122C-0.046231 27.4531 2.17937 28.375 4.5 28.375V12.375ZM9.62652 14.4985C10.9862 15.8581 11.75 17.7022 11.75 19.625H-4.25C-4.25 21.9456 -3.32813 24.1712 -1.68718 25.8122L9.62652 14.4985ZM11.75 19.625V5.375H-4.25V19.625H11.75ZM11.75 5.375C11.75 7.29783 10.9862 9.14189 9.62652 10.5015L-1.68718 -0.812184C-3.32812 0.828755 -4.25 3.05435 -4.25 5.375H11.75ZM9.62652 10.5015C8.26689 11.8612 6.42283 12.625 4.5 12.625V-3.375C2.17935 -3.375 -0.0462449 -2.45312 -1.68718 -0.812184L9.62652 10.5015ZM4.5 12.625H19.5V-3.375H4.5V12.625ZM19.5 12.625C17.5772 12.625 15.7331 11.8612 14.3735 10.5015L25.6872 -0.812184C24.0462 -2.45313 21.8206 -3.375 19.5 -3.375V12.625ZM14.3735 10.5015C13.0138 9.14188 12.25 7.29781 12.25 5.375H28.25C28.25 3.05437 27.3281 0.828769 25.6872 -0.812184L14.3735 10.5015ZM12.25 5.375V19.625H28.25V5.375H12.25Z" fill="#444B55" mask="url(#path-1-inside-1_1979_26257)"/>
<mask id="path-3-inside-2_1979_26257" fill="white">
<path d="M16.8751 11.3751C17.074 11.3751 17.2648 11.2961 17.4054 11.1554C17.5461 11.0148 17.6251 10.824 17.6251 10.6251C17.6251 10.4262 17.5461 10.2354 17.4054 10.0948C17.2648 9.95412 17.074 9.8751 16.8751 9.8751H8.56136L9.53261 8.90385C9.67334 8.76312 9.7524 8.57225 9.7524 8.37322C9.7524 8.1742 9.67334 7.98333 9.53261 7.8426C9.39188 7.70186 9.20101 7.6228 9.00199 7.6228C8.80296 7.6228 8.61209 7.70186 8.47136 7.8426L6.22136 10.0926C6.11582 10.1973 6.04377 10.331 6.01435 10.4767C5.98493 10.6224 5.99947 10.7735 6.05613 10.911C6.11279 11.0484 6.20901 11.1659 6.33257 11.2485C6.45613 11.3312 6.60146 11.3752 6.75011 11.3751H16.8751Z"/>
</mask>
<path d="M16.8751 11.3751C17.074 11.3751 17.2648 11.2961 17.4054 11.1554C17.5461 11.0148 17.6251 10.824 17.6251 10.6251C17.6251 10.4262 17.5461 10.2354 17.4054 10.0948C17.2648 9.95412 17.074 9.8751 16.8751 9.8751H8.56136L9.53261 8.90385C9.67334 8.76312 9.7524 8.57225 9.7524 8.37322C9.7524 8.1742 9.67334 7.98333 9.53261 7.8426C9.39188 7.70186 9.20101 7.6228 9.00199 7.6228C8.80296 7.6228 8.61209 7.70186 8.47136 7.8426L6.22136 10.0926C6.11582 10.1973 6.04377 10.331 6.01435 10.4767C5.98493 10.6224 5.99947 10.7735 6.05613 10.911C6.11279 11.0484 6.20901 11.1659 6.33257 11.2485C6.45613 11.3312 6.60146 11.3752 6.75011 11.3751H16.8751Z" fill="#444B55"/>
<path d="M8.56136 9.8751L2.9045 4.21825L-10.7523 17.8751H8.56136V9.8751ZM9.7524 8.37322L17.7524 8.37322L9.7524 8.37322ZM8.47136 7.8426L14.1282 13.4994H14.1282L8.47136 7.8426ZM6.22136 10.0926L11.855 15.7726L11.8666 15.761L11.8782 15.7494L6.22136 10.0926ZM6.75011 11.3751V3.3751L6.74372 3.3751L6.75011 11.3751ZM16.8751 19.3751C19.1958 19.3751 21.4214 18.4532 23.0623 16.8123L11.7486 5.49858C13.1082 4.13894 14.9523 3.3751 16.8751 3.3751V19.3751ZM23.0623 16.8123C24.7033 15.1713 25.6251 12.9457 25.6251 10.6251H9.62511C9.62511 8.7023 10.3889 6.85823 11.7486 5.49858L23.0623 16.8123ZM25.6251 10.6251C25.6251 8.30448 24.7033 6.07888 23.0623 4.43792L11.7486 15.7516C10.3889 14.392 9.62511 12.5479 9.62511 10.6251H25.6251ZM23.0623 4.43792C21.4214 2.79697 19.1958 1.8751 16.8751 1.8751V17.8751C14.9523 17.8751 13.1082 17.1113 11.7486 15.7516L23.0623 4.43792ZM16.8751 1.8751H8.56136V17.8751H16.8751V1.8751ZM14.2182 15.5319L15.1895 14.5607L3.87575 3.247L2.9045 4.21825L14.2182 15.5319ZM15.1895 14.5607C16.8305 12.9197 17.7524 10.694 17.7524 8.37322L1.7524 8.37322C1.7524 6.45051 2.5162 4.60655 3.87575 3.247L15.1895 14.5607ZM17.7524 8.37322C17.7524 6.05247 16.8305 3.82677 15.1895 2.18575L3.87575 13.4994C2.51619 12.1399 1.7524 10.2959 1.7524 8.37322L17.7524 8.37322ZM15.1895 2.18575C13.5485 0.544726 11.3227 -0.377197 9.00199 -0.377197V15.6228C7.07927 15.6228 5.23531 14.859 3.87575 13.4994L15.1895 2.18575ZM9.00199 -0.377197C6.68121 -0.377197 4.45551 0.544732 2.8145 2.18575L14.1282 13.4994C12.7687 14.859 10.9247 15.6228 9.00199 15.6228V-0.377197ZM2.8145 2.18575L0.564501 4.43575L11.8782 15.7494L14.1282 13.4994L2.8145 2.18575ZM0.587744 4.4126C-0.643562 5.63386 -1.48419 7.19346 -1.82742 8.89339L13.8561 12.0599C13.5717 13.4685 12.8752 14.7607 11.855 15.7726L0.587744 4.4126ZM-1.82742 8.89339C-2.17064 10.5933 -2.00096 12.3569 -1.33995 13.9602L13.4522 7.86171C13.9999 9.19016 14.1405 10.6514 13.8561 12.0599L-1.82742 8.89339ZM-1.33995 13.9602C-0.678945 15.5635 0.443594 16.9343 1.88517 17.8984L10.78 4.59867C11.9744 5.39751 12.9045 6.53327 13.4522 7.86171L-1.33995 13.9602ZM1.88517 17.8984C3.32672 18.8625 5.02226 19.3765 6.7565 19.3751L6.74372 3.3751C8.18066 3.37396 9.58554 3.79984 10.78 4.59867L1.88517 17.8984ZM6.75011 19.3751H16.8751V3.3751H6.75011V19.3751Z" fill="#444B55" mask="url(#path-3-inside-2_1979_26257)"/>
<path d="M17.625 14H7.5C7.30109 14 7.11032 14.079 6.96967 14.2197C6.82902 14.3603 6.75 14.5511 6.75 14.75C6.75 14.9489 6.82902 15.1397 6.96967 15.2803C7.11032 15.421 7.30109 15.5 7.5 15.5H15.8138L14.8425 16.4713C14.7018 16.612 14.6227 16.8029 14.6227 17.0019C14.6227 17.2009 14.7018 17.3918 14.8425 17.5325C14.9832 17.6732 15.1741 17.7523 15.3731 17.7523C15.5722 17.7523 15.763 17.6732 15.9038 17.5325L18.1538 15.2825C18.2593 15.1778 18.3314 15.0441 18.3608 14.8984C18.3902 14.7527 18.3757 14.6016 18.319 14.4641C18.2623 14.3267 18.1661 14.2092 18.0426 14.1266C17.919 14.0439 17.7737 13.9999 17.625 14Z" fill="#444B55"/>
</svg>
